<svg width="157" height="51" viewBox="0 0 157 51" fill="none" xmlns="http://www.w3.org/2000/svg">
<path d="M23.7799 17.274L29.5199 17.151C29.7386 17.151 29.8479 17.3833 29.8479 17.848C29.8479 18.3127 29.7386 18.545 29.5199 18.545H28.2489C27.5656 18.545 27.1146 18.6817 26.8959 18.955C26.6772 19.201 26.5679 19.9937 26.5679 21.333C26.5679 22.645 26.5952 23.998 26.6499 25.392C26.7319 26.7587 26.8002 27.7153 26.8549 28.262C26.9369 28.7813 27.0052 29.2323 27.0599 29.615C27.1419 29.9977 27.1829 30.271 27.1829 30.435C27.1829 30.763 26.9642 30.927 26.5269 30.927C26.3629 30.927 26.0896 30.4213 25.7069 29.41C25.3516 28.3987 24.9826 27.893 24.5999 27.893C22.0852 28.9863 19.4476 29.533 16.6869 29.533C11.9582 29.533 8.04956 28.3577 4.96089 26.007C1.87223 23.6563 0.327895 20.39 0.327895 16.208C0.327895 13.0373 1.13423 10.2767 2.74689 7.926C4.38689 5.57533 6.46423 3.83967 8.97889 2.719C11.4936 1.571 14.2269 0.996999 17.1789 0.996999C18.4636 0.996999 19.5569 1.12 20.4589 1.366C21.3609 1.58467 22.4816 1.95367 23.8209 2.473V1.612C23.8209 1.366 24.0122 1.243 24.3949 1.243C24.8049 1.243 25.0099 1.366 25.0099 1.612C25.0099 4.09933 25.1329 6.163 25.3789 7.803C25.4062 7.91233 25.3379 8.008 25.1739 8.09C25.0372 8.172 24.8186 8.213 24.5179 8.213C24.2446 8.213 24.0942 8.09 24.0669 7.844L23.7799 6.04C21.4019 3.88067 18.9009 2.801 16.2769 2.801C13.1882 2.801 10.6052 3.908 8.52789 6.122C6.45056 8.30867 5.41189 11.37 5.41189 15.306C5.41189 19.2147 6.50523 22.2623 8.69189 24.449C10.8786 26.6083 13.6256 27.688 16.9329 27.688C19.0922 27.688 20.7322 27.114 21.8529 25.966V22.194C21.8529 19.7887 21.5659 18.586 20.9919 18.586H16.6459C16.4272 18.586 16.3179 18.3673 16.3179 17.93C16.3179 17.4653 16.4272 17.233 16.6459 17.233L23.7799 17.274Z" fill="#219653"/>
<path d="M32.4966 1.407L37.6626 1.489H49.5526V0.627999C49.5526 0.381999 49.7439 0.258999 50.1266 0.258999C50.5366 0.258999 50.7416 0.381999 50.7416 0.627999C50.7416 3.36133 50.8782 5.43867 51.1516 6.86C51.2062 7.07867 51.0149 7.188 50.5776 7.188C50.1402 7.188 49.8942 7.07867 49.8396 6.86C49.4022 5.138 48.8829 4.14033 48.2816 3.867C46.8329 3.32033 44.5096 3.03333 41.3116 3.006C40.7649 3.03333 40.3959 3.18367 40.2046 3.457C40.0406 3.73033 39.9586 4.20867 39.9586 4.892V14.568C41.6532 14.5407 43.3069 14.4587 44.9196 14.322C46.5322 14.1853 47.4069 14.076 47.5436 13.994L47.9536 11.575C47.9809 11.3837 48.1449 11.288 48.4456 11.288C49.0196 11.288 49.2792 11.411 49.2246 11.657C49.0879 12.723 49.0196 13.9257 49.0196 15.265C49.0196 16.6043 49.0879 17.807 49.2246 18.873C49.2792 19.0917 49.0742 19.201 48.6096 19.201C48.1722 19.201 47.9536 19.119 47.9536 18.955L47.5026 16.495C47.3386 16.413 46.4639 16.3037 44.8786 16.167C43.3206 16.003 41.6806 15.9073 39.9586 15.88V23.752C39.9586 26.1573 40.2456 27.36 40.8196 27.36H42.9106C47.1472 27.3053 50.0446 26.7313 51.6026 25.638L51.8896 23.383C51.9442 23.1643 52.1766 23.055 52.5866 23.055C53.0239 23.055 53.2426 23.137 53.2426 23.301L52.8736 29.902C52.8736 30.0933 52.6549 30.189 52.2176 30.189C51.8076 30.189 51.6026 30.0933 51.6026 29.902V29H41.4756L32.2916 29.082C32.0729 29.082 31.9636 28.8497 31.9636 28.385C31.9636 27.9203 32.0729 27.688 32.2916 27.688H34.0546C34.7379 27.688 35.1889 27.565 35.4076 27.319C35.6262 27.0457 35.7356 26.54 35.7356 25.802V6.368C35.7356 3.96266 35.4486 2.76 34.8746 2.76H32.4966C32.2779 2.76 32.1686 2.54133 32.1686 2.104C32.1686 1.63933 32.2779 1.407 32.4966 1.407ZM82.2811 1.489L87.1191 1.366C87.3651 1.366 87.4881 1.59833 87.4881 2.063C87.4881 2.50033 87.3651 2.719 87.1191 2.719H85.1921C84.6455 2.719 84.2901 2.842 84.1261 3.088C83.4975 4.01733 83.1558 12.8187 83.1011 29.492C83.0465 29.6833 82.8278 29.779 82.4451 29.779C82.0625 29.779 81.7755 29.6833 81.5841 29.492C73.6028 20.0073 67.3161 12.477 62.7241 6.901H62.5601C62.6695 16.8503 62.7515 22.7953 62.8061 24.736C62.8608 26.6767 63.1478 27.647 63.6671 27.647H65.9221C66.1681 27.647 66.2911 27.8793 66.2911 28.344C66.2911 28.7813 66.1681 29 65.9221 29L61.5761 28.959L56.6971 29.082C56.5058 29.082 56.4101 28.8497 56.4101 28.385C56.4101 27.9203 56.5058 27.688 56.6971 27.688H58.0501C58.6788 27.688 59.1298 27.6197 59.4031 27.483C59.6765 27.319 59.8268 27.0183 59.8541 26.581C60.4008 20.431 60.6741 13.0783 60.6741 4.523L60.3871 4.195C59.8405 3.56633 59.3485 3.17 58.9111 3.006C58.5011 2.81467 57.7221 2.719 56.5741 2.719C56.4101 2.719 56.3281 2.50033 56.3281 2.063C56.3281 1.62567 56.4101 1.407 56.5741 1.407L63.9951 1.489C73.7258 13.6797 79.3838 20.841 80.9691 22.973H81.1331C80.9691 12.1217 80.8325 6.04 80.7231 4.728C80.6138 3.416 80.2995 2.76 79.7801 2.76H77.8121C77.5661 2.76 77.4431 2.54133 77.4431 2.104C77.4431 1.63933 77.5661 1.407 77.8121 1.407L82.2811 1.489Z" fill="#EB5757"/>
<path d="M96.4799 1.448L102.22 1.325C102.439 1.325 102.548 1.55733 102.548 2.022C102.548 2.48667 102.439 2.719 102.22 2.719H100.457C99.7736 2.719 99.3226 2.85567 99.1039 3.129C98.8853 3.375 98.7759 3.867 98.7759 4.605V24.039C98.7759 26.4443 99.0629 27.647 99.6369 27.647H102.015C102.234 27.647 102.343 27.8793 102.343 28.344C102.343 28.7813 102.234 29 102.015 29L96.8489 28.959L91.1089 29.082C90.8903 29.082 90.7809 28.8497 90.7809 28.385C90.7809 27.9203 90.8903 27.688 91.1089 27.688H92.8719C93.5553 27.688 94.0063 27.565 94.2249 27.319C94.4436 27.0457 94.5529 26.54 94.5529 25.802V6.368C94.5529 3.96266 94.2659 2.76 93.6919 2.76H91.3139C91.0953 2.76 90.9859 2.54133 90.9859 2.104C90.9859 1.63933 91.0953 1.407 91.3139 1.407L96.4799 1.448ZM130.296 1.448L134.724 1.325C134.943 1.325 135.052 1.55733 135.052 2.022C135.052 2.48667 134.943 2.719 134.724 2.719H133.494C132.811 2.719 132.36 2.85567 132.141 3.129C131.95 3.375 131.827 3.867 131.772 4.605C131.526 8.295 131.403 12.9417 131.403 18.545C131.403 21.989 130.337 24.6813 128.205 26.622C126.073 28.5627 123.531 29.533 120.579 29.533C117.655 29.533 115.126 28.631 112.994 26.827C110.89 24.9957 109.837 22.4263 109.837 19.119V6.368C109.837 3.96266 109.55 2.76 108.976 2.76H106.598C106.38 2.76 106.27 2.54133 106.27 2.104C106.27 1.63933 106.38 1.407 106.598 1.407L111.764 1.448L117.504 1.325C117.723 1.325 117.832 1.55733 117.832 2.022C117.832 2.48667 117.723 2.719 117.504 2.719H115.741C115.058 2.719 114.607 2.85567 114.388 3.129C114.17 3.375 114.06 3.867 114.06 4.605V17.971C114.06 20.8683 114.771 23.055 116.192 24.531C117.641 25.9797 119.486 26.704 121.727 26.704C123.969 26.704 125.745 25.8977 127.057 24.285C128.397 22.645 129.066 20.2533 129.066 17.11C129.066 12.764 129.012 9.29267 128.902 6.696C128.793 4.072 128.479 2.76 127.959 2.76H125.663C125.445 2.76 125.335 2.54133 125.335 2.104C125.335 1.63933 125.445 1.407 125.663 1.407L130.296 1.448Z" fill="#F2C94C"/>
<path d="M156.587 21.907C156.587 24.1757 155.616 26.0207 153.676 27.442C151.735 28.836 149.589 29.533 147.239 29.533C144.888 29.533 142.811 29.123 141.007 28.303L141.335 29.123C141.417 29.287 141.348 29.4373 141.13 29.574C140.938 29.738 140.72 29.82 140.474 29.82C140.228 29.82 140.064 29.7517 139.982 29.615C139.107 27.401 138.574 24.8317 138.383 21.907C138.383 21.6337 138.601 21.497 139.039 21.497C139.476 21.497 139.708 21.5927 139.736 21.784C140.337 23.8613 141.553 25.5287 143.385 26.786C144.505 27.5787 145.804 27.975 147.28 27.975C148.783 27.975 149.986 27.5513 150.888 26.704C151.817 25.8293 152.282 24.7907 152.282 23.588C152.282 22.358 151.967 21.2647 151.339 20.308C150.71 19.324 149.931 18.5313 149.002 17.93C148.072 17.3287 147.061 16.7 145.968 16.044C144.874 15.3607 143.863 14.7183 142.934 14.117C142.004 13.4883 141.225 12.6547 140.597 11.616C139.968 10.5773 139.654 9.402 139.654 8.09C139.654 6.09467 140.542 4.41367 142.319 3.047C144.123 1.653 146.378 0.955999 149.084 0.955999C150.314 0.955999 151.462 1.12 152.528 1.448L153.02 1.571C152.91 1.13366 152.842 0.832998 152.815 0.668998C152.815 0.504999 152.869 0.395665 152.979 0.340998C153.115 0.258999 153.307 0.217999 153.553 0.217999C153.826 0.217999 154.004 0.327333 154.086 0.546C154.714 2.76 155.083 4.933 155.193 7.065C155.111 7.229 154.878 7.311 154.496 7.311C154.14 7.311 153.922 7.27 153.84 7.188C153.539 6.06733 153.115 5.15167 152.569 4.441C152.022 3.703 151.421 3.19733 150.765 2.924C150.109 2.65067 149.343 2.514 148.469 2.514C146.774 2.514 145.558 2.95133 144.82 3.826C144.109 4.67333 143.754 5.61633 143.754 6.655C143.754 7.66633 143.986 8.541 144.451 9.279C144.943 9.98967 145.558 10.6183 146.296 11.165C147.061 11.6843 147.895 12.2037 148.797 12.723C149.699 13.215 150.601 13.748 151.503 14.322C152.432 14.896 153.279 15.5247 154.045 16.208C155.739 17.7113 156.587 19.611 156.587 21.907Z" fill="#2F80ED"/>
<path d="M62.2811 44.984L64.7531 44.936C64.8651 44.936 64.9211 45.056 64.9211 45.296C64.9211 45.536 64.8651 45.656 64.7531 45.656H64.2251C63.9371 45.656 63.7371 45.712 63.6251 45.824C63.5291 45.936 63.4811 46.144 63.4811 46.448C63.4811 48.208 63.5211 49.336 63.6011 49.832C63.6971 50.328 63.7451 50.608 63.7451 50.672C63.7451 50.816 63.6651 50.888 63.5051 50.888C63.3771 50.888 63.2251 50.664 63.0491 50.216C62.8891 49.784 62.7371 49.568 62.5931 49.568C62.5611 49.568 62.3771 49.632 62.0411 49.76C61.0811 50.128 60.1531 50.312 59.2571 50.312C57.2251 50.312 55.5451 49.816 54.2171 48.824C52.9051 47.832 52.2491 46.384 52.2491 44.48C52.2491 42.576 52.9531 41.048 54.3611 39.896C55.7851 38.728 57.4811 38.144 59.4491 38.144C60.3131 38.144 61.2571 38.36 62.2811 38.792V38.408C62.2811 38.28 62.3851 38.216 62.5931 38.216C62.8011 38.216 62.9051 38.28 62.9051 38.408C62.9051 39.4 62.9611 40.28 63.0731 41.048C63.0891 41.096 63.0571 41.144 62.9771 41.192C62.9131 41.224 62.8091 41.24 62.6651 41.24C62.5211 41.24 62.4331 41.184 62.4011 41.072L62.2811 40.304C61.3371 39.456 60.2571 39.032 59.0411 39.032C57.8411 39.032 56.8091 39.496 55.9451 40.424C55.0971 41.352 54.6731 42.6 54.6731 44.168C54.6731 45.736 55.1051 47.008 55.9691 47.984C56.8331 48.96 57.9211 49.448 59.2331 49.448C59.6491 49.448 60.0411 49.4 60.4091 49.304C60.7771 49.192 61.0411 49.08 61.2011 48.968L61.4411 48.8V47.192C61.4411 46.168 61.3211 45.656 61.0811 45.656H59.2331C59.1211 45.656 59.0651 45.544 59.0651 45.32C59.0651 45.08 59.1211 44.96 59.2331 44.96L62.2811 44.984ZM66.5516 50L64.6556 50.048C64.5436 50.048 64.4876 49.944 64.4876 49.736C64.4876 49.528 64.5436 49.424 64.6556 49.424H65.4236C65.5996 49.424 65.7276 49.352 65.8076 49.208C66.1756 48.6 66.9116 46.984 68.0156 44.36C69.1196 41.72 69.9116 39.72 70.3916 38.36C70.4556 38.216 70.6076 38.144 70.8476 38.144C71.1036 38.144 71.2636 38.224 71.3276 38.384C71.5196 39.184 72.0796 40.696 73.0076 42.92C73.9516 45.144 74.7756 47 75.4796 48.488C75.6716 48.872 75.8476 49.12 76.0076 49.232C76.1676 49.344 76.4156 49.4 76.7516 49.4C76.8476 49.4 76.8956 49.512 76.8956 49.736C76.8956 49.944 76.8556 50.048 76.7756 50.048L74.4716 50L71.8796 50.048C71.7836 50.048 71.7356 49.944 71.7356 49.736C71.7356 49.528 71.7836 49.424 71.8796 49.424H73.0316C73.2076 49.424 73.2956 49.352 73.2956 49.208C73.2956 49.192 72.8476 47.96 71.9516 45.512H68.6156C67.8316 47.448 67.4396 48.584 67.4396 48.92C67.4396 49.24 67.5356 49.4 67.7276 49.4H68.7116C68.8396 49.4 68.9036 49.512 68.9036 49.736C68.9036 49.944 68.8556 50.048 68.7596 50.048L66.5516 50ZM71.6396 44.696C71.5916 44.552 71.1756 43.336 70.3916 41.048H70.3196C69.9356 42.152 69.4796 43.368 68.9516 44.696H71.6396ZM89.2422 38.48L92.3863 38.408C92.5143 38.408 92.5783 38.528 92.5783 38.768C92.5783 38.992 92.5143 39.104 92.3863 39.104H91.7863C91.4343 39.104 91.2583 39.4 91.2583 39.992C91.2583 40.248 91.3703 41.512 91.5943 43.784C91.8343 46.056 91.9863 47.536 92.0503 48.224C92.1303 48.912 92.2743 49.256 92.4823 49.256H93.5383C93.6823 49.256 93.7543 49.384 93.7543 49.64C93.7543 49.88 93.6903 50 93.5623 50L91.2103 49.976L88.7863 50.048C88.6743 50.048 88.6183 49.928 88.6183 49.688C88.6183 49.448 88.6663 49.328 88.7623 49.328H89.5063C89.9383 49.328 90.1383 49.144 90.1063 48.776C89.7863 44.296 89.6103 41.76 89.5782 41.168H89.4823C87.9943 44.304 86.7623 47.144 85.7863 49.688C85.7223 49.832 85.5623 49.904 85.3063 49.904C85.0663 49.904 84.9143 49.824 84.8503 49.664C84.4183 48.544 83.2503 45.648 81.3463 40.976H81.2743C81.0343 44.288 80.9143 46.248 80.9143 46.856C80.9143 47.464 80.9143 47.792 80.9143 47.84C80.9143 48.784 81.0583 49.256 81.3463 49.256H82.0903C82.2503 49.256 82.3303 49.384 82.3303 49.64C82.3303 49.88 82.2503 50 82.0903 50L80.1703 49.976L77.8663 50.048C77.7703 50.048 77.7223 49.928 77.7223 49.688C77.7223 49.448 77.7783 49.328 77.8903 49.328H78.4663C78.8503 49.328 79.0823 49.288 79.1623 49.208C79.2583 49.112 79.3223 48.992 79.3543 48.848C79.4663 48.192 79.6343 46.768 79.8583 44.576C80.0983 42.384 80.2183 41.04 80.2183 40.544C80.2343 40.032 80.2023 39.672 80.1223 39.464C80.0583 39.256 79.9303 39.152 79.7383 39.152H79.0663C78.9703 39.152 78.9223 39.032 78.9223 38.792C78.9223 38.536 78.9703 38.408 79.0663 38.408L81.3703 38.48H82.4983C82.6423 38.896 83.6983 41.792 85.6663 47.168H85.7623C86.8823 44.768 88.0423 41.872 89.2422 38.48ZM95.6838 38.408L98.1318 38.456H103.1V38.072C103.1 37.976 103.204 37.928 103.412 37.928C103.636 37.928 103.748 37.976 103.748 38.072C103.748 39.336 103.804 40.24 103.916 40.784C103.948 40.88 103.86 40.928 103.652 40.928C103.38 40.928 103.244 40.88 103.244 40.784C103.02 40.048 102.804 39.632 102.596 39.536C101.924 39.296 100.948 39.176 99.6678 39.176C99.4438 39.192 99.2918 39.256 99.2118 39.368C99.1318 39.48 99.0918 39.68 99.0918 39.968V43.904C101.028 43.84 102.092 43.752 102.284 43.64L102.452 42.632C102.484 42.552 102.596 42.512 102.788 42.512C102.996 42.512 103.1 42.568 103.1 42.68C103.036 43.144 103.004 43.664 103.004 44.24C103.004 44.8 103.036 45.312 103.1 45.776C103.1 45.872 102.988 45.92 102.764 45.92C102.556 45.92 102.452 45.888 102.452 45.824L102.26 44.792C102.068 44.68 101.012 44.592 99.0918 44.528V47.432C99.0918 48.632 99.2518 49.232 99.5718 49.232H100.34C102.1 49.2 103.316 48.952 103.988 48.488L104.108 47.552C104.14 47.456 104.22 47.408 104.348 47.408C104.492 47.408 104.588 47.408 104.636 47.408C104.732 47.44 104.78 47.488 104.78 47.552C104.684 48.224 104.636 49.168 104.636 50.384C104.636 50.464 104.524 50.504 104.3 50.504C104.092 50.504 103.988 50.464 103.988 50.384V50H99.7158L95.6358 50.048C95.5238 50.048 95.4678 49.928 95.4678 49.688C95.4678 49.448 95.5158 49.328 95.6118 49.328H96.6918C96.8678 49.328 96.9718 49.296 97.0038 49.232C97.0358 49.152 97.0518 48.952 97.0518 48.632V41.072C97.0518 39.792 96.8918 39.152 96.5718 39.152H95.7078C95.5158 39.152 95.4198 39.032 95.4198 38.792C95.4198 38.536 95.5078 38.408 95.6838 38.408Z" fill="#333333"/>
</svg>
